<?xml version="1.0" encoding="utf-8"?>
<svg version="1.1" xmlns:xlink="http://www.w3.org/1999/xlink" width="409px" height="231px" xmlns="http://www.w3.org/2000/svg">
  <g>
    <path d="M 0 0  L 409 0  L 409 231  L 0 231  L 0 0  " fill-rule="nonzero" fill="#cccccc" stroke="none" />
    <path d="M 16 16  L 393 16  L 393 215  L 16 215  L 16 16  " fill-rule="nonzero" fill="#ffffff" stroke="none" />
    <path d="M 230.005 69.3  C 220.303 69.3  212.68 61.677  212.68 51.975  C 212.68 42.273  220.303 34.65  230.005 34.65  C 239.707 34.65  247.33 42.273  247.33 51.975  C 247.33 61.677  239.707 69.3  230.005 69.3  " fill-rule="nonzero" fill="#cccccc" stroke="none" />
    <path d="M 22 209  L 22 106.15  L 113.25 59.4  L 241 145.630317848411  L 314 87.45  L 387 145.630317848411  L 387 209  L 22 209  " fill-rule="nonzero" fill="#169bd5" stroke="none" />
  </g>
</svg>